HIERARCHY
ROOT Hips
{
  OFFSET 173.408295 91.952423 -518.280273
  CHANNELS 6 Xposition Yposition Zposition Zrotation Yrotation Xrotation
  JOINT LeftUpLeg
  {
    OFFSET 0.103459 1.857827 10.548504
    CHANNELS 3 Zrotation Yrotation Xrotation
    JOINT LeftLeg
    {
      OFFSET 43.500008 0.000000 0.000004
      CHANNELS 3 Zrotation Yrotation Xrotation
      JOINT LeftFoot
      {
        OFFSET 42.372192 0.000011 0.000000
        CHANNELS 3 Zrotation Yrotation Xrotation
        JOINT LeftToe
        {
          OFFSET 17.299973 -0.000013 -0.000010
          CHANNELS 3 Zrotation Yrotation Xrotation
          End Site
          {
            OFFSET 0.000000 0.000000 0.000000
          }
        }
      }
    }
    JOINT RightUpLeg
    {
      OFFSET 0.103454 1.857830 -10.548500
      CHANNELS 3 Zrotation Yrotation Xrotation
      JOINT RightLeg
      {
        OFFSET 43.500038 -0.000038 0.000004
        CHANNELS 3 Zrotation Yrotation Xrotation
        JOINT RightFoot
        {
          OFFSET 42.372253 0.000019 0.000024
          CHANNELS 3 Zrotation Yrotation Xrotation
          JOINT RightToe
          {
            OFFSET 17.299988 -0.000007 0.000004
            CHANNELS 3 Zrotation Yrotation Xrotation
            End Site
            {
              OFFSET 0.000000 0.000000 0.000000
            }
          }
        }
      }
      JOINT Spine
      {
        OFFSET 6.901963 -2.603744 0.000004
        CHANNELS 3 Zrotation Yrotation Xrotation
        JOINT Spine1
        {
          OFFSET 12.588104 0.000008 -0.000010
          CHANNELS 3 Zrotation Yrotation Xrotation
          JOINT Spine2
          {
            OFFSET 12.343202 -0.000005 0.000010
            CHANNELS 3 Zrotation Yrotation Xrotation
            JOINT Neck
            {
              OFFSET 25.832897 0.000000 0.000001
              CHANNELS 3 Zrotation Yrotation Xrotation
              JOINT Head
              {
                OFFSET 11.766611 -0.000006 -0.000000
                CHANNELS 3 Zrotation Yrotation Xrotation
                End Site
                {
                  OFFSET 0.000000 0.000000 0.000000
                }
              }
              JOINT LeftShoulder
              {
                OFFSET 19.745899 -1.480366 6.000108
                CHANNELS 3 Zrotation Yrotation Xrotation
                JOINT LeftArm
                {
                  OFFSET 11.284111 -0.000018 -0.000015
                  CHANNELS 3 Zrotation Yrotation Xrotation
                  JOINT LeftForeArm
                  {
                    OFFSET 33.000050 -0.000005 0.000028
                    CHANNELS 3 Zrotation Yrotation Xrotation
                    JOINT LeftHand
                    {
                      OFFSET 25.200012 0.000000 0.000002
                      CHANNELS 3 Zrotation Yrotation Xrotation
                      End Site
                      {
                        OFFSET 0.000000 0.000000 0.000000
                      }
                    }
                  }
                }
                JOINT RightShoulder
                {
                  OFFSET 19.746111 -1.480335 -6.000074
                  CHANNELS 3 Zrotation Yrotation Xrotation
                  JOINT RightArm
                  {
                    OFFSET 11.284151 0.000036 0.000001
                    CHANNELS 3 Zrotation Yrotation Xrotation
                    JOINT RightForeArm
                    {
                      OFFSET 33.000092 -0.000035 0.000022
                      CHANNELS 3 Zrotation Yrotation Xrotation
                      JOINT RightHand
                      {
                        OFFSET 25.199768 0.000178 0.000417
                        CHANNELS 3 Zrotation Yrotation Xrotation
                        End Site
                        {
                          OFFSET 0.000000 0.000000 0.000000
                        }
                      }
                    }
                  }
                }
              }
            }
          }
        }
      }
    }
  }
}
MOTION
Frames: 9
Frame Time: 0.03333333
-0.139800 -0.167425 0.924942 178.197851 -1.123135 -81.897627 178.372584 7.944934 -4.154960 -173.151080 25.818275 -3.766061 -166.942621 -20.983288 2.806869 -158.281469 -10.835540 -36.355171 177.721120 -2.954247 6.025050 175.117020 20.065352 -7.405143 -172.107626 -25.877525 3.913758 158.721064 -5.904777 49.530948 175.732100 0.327602 -0.023760 176.403417 7.450387 3.819939 177.706303 -5.167158 0.317665 -177.607049 11.624165 -1.489145 -176.955051 -9.679618 -7.285280 -130.240222 0.166841 9.450368 169.776121 -23.860434 -0.379047 -105.863966 -1.323659 16.480807 146.452877 43.793236 -13.217417 135.922602 6.290945 -14.100320 -170.033245 -31.423520 -21.563933 162.586652 -5.358303 2.655103 121.883046 -35.333270 -34.191191
-0.134916 -0.160613 0.924030 177.840838 0.158382 -80.361688 177.957414 -0.575305 -5.718173 -166.601669 39.117542 -13.190529 -168.116796 -12.015107 1.260568 -159.940630 -2.872842 -37.376935 179.745750 -1.200912 5.012707 175.678952 18.389123 -8.391664 -173.323088 -27.177947 2.840715 159.076645 -5.902356 41.799761 178.074397 0.280508 -1.124501 178.762190 6.105359 4.237255 178.247164 -4.874016 -0.411051 -177.183755 10.863317 1.637121 -176.613099 -9.157259 -8.796327 -130.582192 1.741045 8.512834 169.815892 -24.190241 0.200156 -101.880299 -0.184423 13.175606 140.988953 36.111774 -8.182688 134.524558 8.253974 -13.027863 -166.786433 -30.336108 -23.087137 157.544477 2.396098 8.292317 107.794925 -46.633026 -58.475557
-0.130141 -0.154762 0.924166 178.180108 1.349835 -80.768277 177.957414 -0.575305 -5.718173 -166.601669 39.117542 -13.190529 -168.116796 -12.015107 1.260568 -159.940630 -2.872842 -37.376935 179.745750 -1.200912 5.012707 175.678952 18.389123 -8.391664 -173.323088 -27.177947 2.840715 159.076645 -5.902356 41.799761 178.074397 0.280508 -1.124501 178.762190 6.105359 4.237255 178.247164 -4.874016 -0.411051 -177.183755 10.863317 1.637121 -176.613099 -9.157259 -8.796327 -130.582192 1.741045 8.512834 169.815892 -24.190241 0.200156 -101.880299 -0.184423 13.175606 140.988953 36.111774 -8.182688 134.524558 8.253974 -13.027863 -166.786433 -30.336108 -23.087137 157.544477 2.396098 8.292317 107.794925 -46.633026 -58.475557
-0.125335 -0.150153 0.925686 178.172837 2.477453 -81.727301 177.613884 -11.961402 0.028607 -162.238744 44.870202 -20.082057 178.101786 -25.107290 -4.130627 -163.240000 -4.838584 -31.810010 -179.471132 0.631899 5.418729 177.010250 14.607896 -9.551344 -172.040365 -22.729229 5.197904 179.991549 -12.181766 45.833259 -179.181796 1.781082 0.320772 -179.582923 7.223277 4.698732 178.839243 -6.681401 -0.201583 -177.798244 5.117188 5.642654 179.710255 -7.406101 -4.250441 -133.372061 2.052997 9.219986 171.942171 -24.448981 -0.328582 -115.481677 1.925445 10.097160 150.586571 29.276805 -20.433736 138.670062 11.662009 -16.865369 -168.256294 -28.468571 -20.477928 165.128803 12.820252 8.631774 93.308521 -50.683338 -57.647747
-0.120950 -0.141739 0.929826 176.951479 3.179976 -82.342921 177.613884 -11.961402 0.028607 -162.238744 44.870202 -20.082057 178.101786 -25.107290 -4.130627 -163.240000 -4.838584 -31.810010 -179.471132 0.631899 5.418729 177.010250 14.607896 -9.551344 -172.040365 -22.729229 5.197904 179.991549 -12.181766 45.833259 -179.181796 1.781082 0.320772 -179.582923 7.223277 4.698732 178.839243 -6.681401 -0.201583 -177.798244 5.117188 5.642654 179.710255 -7.406101 -4.250441 -133.372061 2.052997 9.219986 171.942171 -24.448981 -0.328582 -115.481677 1.925445 10.097160 150.586571 29.276805 -20.433736 138.670062 11.662009 -16.865369 -168.256294 -28.468571 -20.477928 165.128803 12.820252 8.631774 93.308521 -50.683338 -57.647747
-0.116862 -0.131840 0.934049 176.233225 3.849185 -82.609514 177.540161 -17.829177 2.588796 -169.116004 38.671883 -10.746085 171.592535 -29.170210 -7.073626 -168.342680 -7.973729 -3.724070 -179.330236 8.264562 5.033377 177.879591 7.243918 -12.769506 -169.297679 -27.429774 9.609653 -171.035296 -10.082468 46.652939 -178.019952 4.478915 1.037138 -177.553092 8.375655 4.236793 179.477478 -7.020365 -0.669521 -178.034060 1.606527 8.261929 178.133582 -8.133030 -0.265361 -136.602522 4.261783 11.325577 173.642280 -26.782790 1.582179 -127.320566 3.292884 9.829045 162.370677 30.718650 -29.725552 144.700646 12.865045 -20.450981 -170.335659 -28.724764 -15.043954 167.714400 12.103273 5.522621 94.379085 -59.527367 -46.626779
-0.113210 -0.123384 0.935652 176.174035 4.948754 -80.732534 177.540161 -17.829177 2.588796 -169.116004 38.671883 -10.746085 171.592535 -29.170210 -7.073626 -168.342680 -7.973729 -3.724070 -179.330236 8.264562 5.033377 177.879591 7.243918 -12.769506 -169.297679 -27.429774 9.609653 -171.035296 -10.082468 46.652939 -178.019952 4.478915 1.037138 -177.553092 8.375655 4.236793 179.477478 -7.020365 -0.669521 -178.034060 1.606527 8.261929 178.133582 -8.133030 -0.265361 -136.602522 4.261783 11.325577 173.642280 -26.782790 1.582179 -127.320566 3.292884 9.829045 162.370677 30.718650 -29.725552 144.700646 12.865045 -20.450981 -170.335659 -28.724764 -15.043954 167.714400 12.103273 5.522621 94.379085 -59.527367 -46.626779
-0.110608 -0.115390 0.934817 175.901687 6.014144 -78.992213 176.030711 -23.808666 2.322268 -169.401819 33.085414 -6.108137 174.297376 -23.165284 -2.974852 -173.825281 2.756263 10.855628 -177.558083 9.522565 5.621880 -179.403971 5.771195 -12.353150 -174.255189 -24.534770 7.420755 -171.649580 -13.130707 32.765419 -176.470444 6.665151 -1.156960 -175.923440 6.546459 2.694486 -179.535497 -4.877409 -1.463084 -177.332969 -3.022114 8.589099 177.082971 -11.097811 1.794289 -138.109881 7.237164 11.972624 174.255880 -19.057737 9.075969 -142.420759 0.007203 11.637923 163.099366 31.337197 -19.552313 147.096730 9.587837 -21.911533 -170.402981 -21.567753 -10.927792 168.156968 3.922185 0.844561 138.219690 -59.917219 -13.601818
-0.108076 -0.105434 0.933772 175.464907 6.847210 -77.261591 176.030711 -23.808666 2.322268 -169.401819 33.085414 -6.108137 174.297376 -23.165284 -2.974852 -173.825281 2.756263 10.855628 -177.558083 9.522565 5.621880 -179.403971 5.771195 -12.353150 -174.255189 -24.534770 7.420755 -171.649580 -13.130707 32.765419 -176.470444 6.665151 -1.156960 -175.923440 6.546459 2.694486 -179.535497 -4.877409 -1.463084 -177.332969 -3.022114 8.589099 177.082971 -11.097811 1.794289 -138.109881 7.237164 11.972624 174.255880 -19.057737 9.075969 -142.420759 0.007203 11.637923 163.099366 31.337197 -19.552313 147.096730 9.587837 -21.911533 -170.402981 -21.567753 -10.927792 168.156968 3.922185 0.844561 138.219690 -59.917219 -13.601818
